<svg width="720" height="220" viewBox="0 0 720 220" fill="none" xmlns="http://www.w3.org/2000/svg" role="img" aria-labelledby="title desc">
  <title id="title">Payba3 logo</title>
  <desc id="desc">A minimalist Payba3 wordmark with three payment channels converging into a single mark.</desc>
  <rect width="720" height="220" rx="36" fill="#F8FAFC"/>
  <g transform="translate(56 42)">
    <rect x="0" y="0" width="136" height="136" rx="30" fill="#0F172A"/>
    <path d="M36 42H78C94.5685 42 108 55.4315 108 72C108 88.5685 94.5685 102 78 102H60V122H36V42Z" fill="#F8FAFC"/>
    <path d="M60 64H76C80.4183 64 84 67.5817 84 72C84 76.4183 80.4183 80 76 80H60V64Z" fill="#22C55E"/>
    <path d="M104 42H124L102 122H82L104 42Z" fill="#22C55E"/>
    <circle cx="108" cy="44" r="6" fill="#38BDF8"/>
    <circle cx="96" cy="84" r="6" fill="#38BDF8"/>
    <circle cx="84" cy="124" r="6" fill="#38BDF8"/>
  </g>
  <text x="226" y="127" fill="#0F172A" font-family="Inter, ui-sans-serif, system-ui, -apple-system, BlinkMacSystemFont, 'Segoe UI', sans-serif" font-size="76" font-weight="800" letter-spacing="0">payba3</text>
  <text x="230" y="160" fill="#475569" font-family="Inter, ui-sans-serif, system-ui, -apple-system, BlinkMacSystemFont, 'Segoe UI', sans-serif" font-size="22" font-weight="500" letter-spacing="0">one surface, many payment channels</text>
</svg>
